<svg id="Layer_1" enable-background="new 0 0 64 64" height="512" viewBox="0 0 64 64" width="512" xmlns="http://www.w3.org/2000/svg"><path d="m27.9 7.9c1.3-.4 2.7-.7 4.1-.7 1.7-.1 3.4.3 4.9.9 1.5.7 2.9 1.6 4.1 2.8 8.5 8.5 15 0 15 0s-3 9-8 12-23 4-23 4l-4.1 3.5-2.9 2.6 1-4-5 1 1-6h-4l2-3-3-1 5-7c0-5 6-12 6-12l1 10c1.8-1.4 3.8-2.4 5.9-3.1z" fill="#ff8939"/><path d="m56.5 10.5s-3 9-8 12-23 4-23 4l-4.1 3.5-2.9 2.5 1-4-5 1 .8-4.7h.2c1.4-.3 2.8.6 3.1 2.1.1.4.1.8 0 1.1l2.9-2.5.1-.1c2.5-2.2 5.6-3.5 8.9-3.8 5.7-.5 14.7-1.6 18-3.6 1.8-1.2 3.3-2.8 4.4-4.6 1.4-.7 2.6-1.7 3.6-2.9z" fill="#bf672b"/><path d="m22 28-.5 2-.6.5-2.9 2.5 1-4-5 1 1-6h-4l2-3-3-1 5-7c0-5 6-12 6-12l.3 2.7c-1.6 2.4-3.3 5.7-3.3 8.3l-5 7 3 1-2 3h4l-1 6z" fill="#ffa161"/><circle cx="58.5" cy="10.5" fill="#f66" r="2.5"/><path d="m61 10.5c0 1.4-1.1 2.5-2.5 2.5s-2.5-1.1-2.5-2.5c1.1.8 2.7.6 3.5-.5.3-.4.5-1 .5-1.5.6.5 1 1.2 1 2z" fill="#bf4d4d"/><path d="m37 8-.1.2c-1.6-.7-3.2-1-4.9-.9v-.3l4-6s0 6 1 7z" fill="#f6f6f6"/><path d="m21 1 6.9 6.9c-2.1.7-4.1 1.7-5.9 3.1z" fill="#f6f6f6"/><path d="m36.2 4.7-1.8 2.7c-.8-.1-1.6-.2-2.4-.2v-.2l4-6s0 1.9.2 3.7z" fill="#b9b9b9"/><path d="m23.8 9.8c-.6.4-1.2.8-1.8 1.2l-1-10 2.1 2.1z" fill="#b9b9b9"/><path d="m64 63h-22s1-2.4 2.1-5.7c8.5 2.3 19.9 5.7 19.9 5.7z" fill="#f6f6f6"/><path d="m64 63h-22s.3-.8.8-2h14.4c3.9 1.2 6.8 2 6.8 2z" fill="#b9b9b9"/><path d="m56 11s0 17-9 18-7 7-1 8c.2 0 .4.1.6.2-3.6 2.2-3.6 7.8-3.6 7.8 0-4-23-11-23-11 .5-1.1.8-2.3 1-3.5l4-3.5s18-1 23-4 8-12 8-12z" fill="#f6f6f6"/><path d="m56 11s0 9-3.4 14.2c-4.2 2.1-15.1 3.2-20 3.6-1.7.1-3.2.8-4.5 1.9l-.2.2c-1.1 1-1.9 2.2-2.3 3.7-.1.4-.2.7-.4 1.1-3-1-5.1-1.7-5.1-1.7.5-1.1.8-2.3 1-3.5l3.9-3.5s18-1 23-4 8-12 8-12z" fill="#b9b9b9"/><path d="m35 55c-13.7 7.3-31.7-10.5-26.9-13.6.6-.3 1.2-.4 1.9-.4 5.9 0 8.7-3.9 10-7s23 7 23 11c0 0 0-5.6 3.6-7.8 3.2 1.8-.1 13-2.5 20-3-.8-6-1.6-9.1-2.2z" fill="#ff8939"/><path d="m45.1 54.3c-.3 1-.7 2-1 2.9-3-.9-6-1.7-9.1-2.3-13.7 7.4-31.7-10.4-26.9-13.5.5-.3 1.2-.4 1.8-.4.9 5.5 15.8 17.8 27.6 11.5 2.6.5 5.1 1.1 7.6 1.8z" fill="#bf672b"/><path d="m26 56.7c-11.3-1.2-21.7-12.9-17.9-15.3.6-.3 1.2-.4 1.9-.4 5.9 0 8.7-3.9 10-7s3 .9 6.8 2.3c-1.3 3.1-4 6.7-9.8 6.7-.7 0-1.3.1-1.9.4-3 1.9 2.8 9.5 10.9 13.3z" fill="#ffa161"/><path d="m44.1 57.3c-1.1 3.3-2.1 5.7-2.1 5.7h-31c-5.5 0-10-4.5-10-10v-2c0-4.4 2.9-8.3 7.1-9.6-4.8 3.1 13.2 20.9 26.9 13.6 3.1.6 6.1 1.4 9.1 2.3z" fill="#ff8939"/><path d="m44.1 57.3c-1.1 3.3-2.1 5.7-2.1 5.7h-31c-5.5 0-10-4.5-10-10v-2c0-.1 0-.3 0-.4.3 5.3 4.7 9.4 10 9.4h31s.5-1.2 1.1-3c.4.1.7.2 1 .3z" fill="#bf672b"/><path d="m17 63h-6c-5.5 0-10-4.5-10-10v-2c0-4.4 2.9-8.3 7.1-9.6-1.2.8-1 2.5.3 4.5-.9 1.6-1.4 3.3-1.4 5.1v2c0 5.5 4.5 10 10 10z" fill="#ffa161"/><g fill="#fff"><path d="m4.5 47.3c-1.7 2.5-1.8 5.7-.3 8.3.1.2.5.3.7.2s.3-.4.2-.7c-1.3-2.3-1.2-5.1.3-7.2.3-.6-.5-1.1-.9-.6z"/><path d="m5.7 57.8c.3 0 .5-.2.5-.5s-.2-.5-.5-.5-.5.2-.5.5.2.5.5.5z"/><path d="m18 13.8c.6 0 1-.4 1-1s-.4-1-1-1-1 .4-1 1 .4 1 1 1z"/><path d="m18.3 14.8c-.3 0-.5.2-.5.5s.2.5.5.5.5-.2.5-.5-.2-.5-.5-.5z"/></g><path d="m26 16h2v5h-2z" fill="#333"/><path d="m64.3 62c-.1 0-10.6-3.1-18.9-5.5 6-17.8 2.8-19.6 1.7-20.2-.2-.1-.4-.2-.6-.3-.1 0-.2-.1-.4-.1-2.7-.5-4.3-2-4.3-3.2 0-1.1 1.4-2.4 5.2-2.8 7.6-.8 9.4-11.4 9.8-16.4.5.3 1.1.4 1.6.4 1.9 0 3.5-1.6 3.5-3.5s-1.5-3.4-3.4-3.4-3.5 1.6-3.5 3.5v.1c-1.5 1.8-3.6 2.9-5.9 3.1-2.5.2-4.9-1-7.4-3.5-1.2-1.2-2.6-2.2-4.1-2.9l.1-.1c-.4-.4-.7-3.3-.7-6.2 0-.6-.4-1-1-1-.3 0-.6.2-.8.4l-3.9 5.8c-1 .1-2.1.3-3.1.5l-6.5-6.5c-.1-.1-.2-.2-.4-.3-.4-.1-.8 0-1.1.3s-6 7.1-6.2 12.3l-4.8 6.8c-.3.4-.2 1.1.2 1.4.1.1.2.1.3.1l1.8.6-1.3 1.9c-.3.5-.2 1.1.3 1.4.2.1.4.2.6.2h2.8l-.9 4.9c-.1.5.3 1.1.8 1.2h.4l3.4-.7-.6 2.5c-.1.5.2 1.1.7 1.2.3.1.6 0 .9-.2l.5-.4c0 .1-.1.2-.1.3-1.7 4.3-4.8 6.4-9 6.4-.8 0-1.6.1-2.3.5-4.6 1.4-7.7 5.6-7.7 10.4v2c0 6.1 4.9 11 11 11h53c.6 0 1-.4 1-1 0-.4-.3-.8-.7-1zm-5.8-53c.8 0 1.5.7 1.5 1.5s-.7 1.5-1.5 1.5-1.5-.7-1.5-1.5.7-1.5 1.5-1.5zm-11.6 19c-6.2.7-7 3.5-7 4.7-.1 2.1 1.8 4.1 4.7 4.9-1.1 1.4-1.9 3-2.2 4.7-4.2-3.5-15-7.2-21-9.1.3-.8.5-1.5.6-2.3l3.5-3c2.6-.2 18.3-1.2 23.1-4.1 2.5-1.5 4.5-4.3 5.9-6.9-.9 4.8-2.9 10.6-7.6 11.1zm-11.8-23.9c.1.8.2 1.7.3 2.5-.6-.1-1.2-.3-1.8-.3zm-9 3.4c-1.1.5-2.2 1-3.3 1.7l-.6-5.5zm-7.1 20.5c-.1 0-.1 0-.2 0l-3.6.7.8-4.6c.1-.5-.3-1.1-.8-1.2-.1 0-.1 0-.2 0h-2.1l1-1.4c.3-.5.2-1.1-.3-1.4-.1 0-.2-.1-.2-.1l-1.7-.6 4.2-5.9c.1-.2.2-.4.2-.6 0-3.1 2.5-7.1 4.3-9.4l.8 7.5c.1.5.5 1 1.1.9.2 0 .4-.1.5-.2 1.7-1.3 3.6-2.2 5.6-2.9 1.2-.4 2.5-.6 3.8-.7 1.5 0 3.1.2 4.5.9 1.4.6 2.7 1.5 3.8 2.6 2.9 2.9 5.9 4.3 9 4.1 1.5-.1 2.9-.6 4.2-1.3-1.3 2.7-3.4 6.1-6 7.7-4.9 2.9-22.6 3.9-22.8 3.9s-.4.1-.6.2l-4.3 3.7h-.1v.1l-.3.2.2-1c.1-.5-.2-1.1-.7-1.2.1 0 0 0-.1 0zm22.3 34h-30.3c-5 0-9-4-9-9v-2c0-3.1 1.7-6 4.3-7.7.1 1 .5 2 1 2.8 2.9 5 11.5 11.6 20.4 11.6 2.6 0 5.1-.6 7.4-1.8.5.1 2.3.5 7.6 1.9-.5 2-1.1 3.4-1.4 4.2zm-3.6-7.5c2.7-1.8 3.9-3.7 3.7-5.7-.6-5-11-7.5-12.1-7.8l-.5 2c3.9.9 10.3 3.4 10.6 6.1.2 1.5-1.5 3.2-4.9 5-10.2 5.4-22.4-3.8-25.4-9-.2-.4-1.2-2.2-.5-2.8.8-.2 1.6-.3 2.4-.3 4.2-.2 7.9-2.9 9.5-6.8 11.6 3.6 21.5 8.1 21.5 9.8 0 .6.4 1 1 1s1-.4 1-1c0 0 0-4.3 2.5-6.5.9 1.6.5 6.9-3.1 17.5-2.7-.7-4.5-1.2-5.7-1.5zm5.8 7.5c.3-.9.8-2.1 1.3-3.5 4.1 1.1 8.6 2.5 12.3 3.5z" fill="#333"/></svg>