<svg id="svg8" height="512" viewBox="0 0 32 32" width="512" xmlns="http://www.w3.org/2000/svg" xmlns:svg="http://www.w3.org/2000/svg"><g id="layer1" transform="translate(-33.022 -30.617)"><path id="path5622" d="m37.022 33.615c-1.645 0-2.996 1.359-2.996 3.004v19.998c0 1.645 1.352 2.998 2.996 2.998h23.998c1.645 0 3.006-1.354 3.006-2.998v-19.998c0-1.645-1.361-3.004-3.006-3.004zm0 2h2.869c-.392 1.95-1.916 3.476-3.865 3.871v-2.867c0-.571.424-1.004.996-1.004zm4.9 0h14.209c.434 3.069 2.852 5.46 5.893 5.9v5.334c-3.038.441-5.476 2.815-5.891 5.893h-14.209c-.442-3.036-2.858-5.486-5.898-5.891v-5.334c3.081-.466 5.457-2.863 5.896-5.902zm16.229 0h2.869c.571 0 1.004.433 1.004 1.004v2.869c-1.953-.394-3.481-1.92-3.873-3.873zm-9.104 4.209c-2.396 0-4.363 1.96-4.363 4.355s1.968 4.361 4.363 4.361 4.355-1.966 4.355-4.361-1.959-4.355-4.355-4.355zm0 2c1.314 0 2.355 1.041 2.355 2.355s-1.041 2.361-2.355 2.361-2.363-1.047-2.363-2.361 1.049-2.355 2.363-2.355zm-7.994 1.357c-.551.001-.997.447-.998.998-.002.552.444 1.002.996 1.004h.002 1.004c.552-.002.998-.452.996-1.004-.001-.55-.446-.996-.996-.998zm14.939 0c-.553-.002-1.003.445-1.004.998-.002.556.449 1.006 1.004 1.004h.998c.555.002 1.006-.448 1.004-1.004-.001-.553-.451-1-1.004-.998zm6.032 5.688v1.186 1.691c0 .571-.433.996-1.004.996h-2.867c.486-2.218 2.176-3.512 3.871-3.873zm-25.998.002c1.946.396 3.469 1.923 3.863 3.871h-2.867c-.571 0-.996-.425-.996-.996zm25.998 5.685v2.061c0 .571-.433.996-1.004.996h-23.998c-.571 0-.996-.425-.996-.996v-2.059c.313.112.646.184.996.184h3.971 20.027c.352 0 .687-.072 1.004-.186z"/></g></svg>